<svg width="17" height="20" viewBox="0 0 17 20" fill="none" xmlns="http://www.w3.org/2000/svg">
<path fill-rule="evenodd" clip-rule="evenodd" d="M0.333274 6.28407C0 7.00868 0 7.83303 0 9.48174V14.6308C0 16.9205 0 18.0653 0.711312 18.7766C1.38072 19.446 2.43408 19.4855 4.46425 19.4878V13.4166C4.46425 12.1937 5.45562 11.2023 6.67853 11.2023H10.3214C11.5443 11.2023 12.5357 12.1937 12.5357 13.4166V19.4878C14.5659 19.4855 15.6193 19.446 16.2887 18.7766C17 18.0653 17 16.9205 17 14.6308V9.48174C17 7.83303 17 7.00868 16.6667 6.28407C16.3335 5.55946 15.7076 5.02297 14.4558 3.95001L13.2415 2.90919C10.9789 0.969823 9.84758 0.000137329 8.5 0.000137329C7.15242 0.000137329 6.02112 0.969823 3.75852 2.90919L2.54423 3.95001C1.29244 5.02297 0.666549 5.55946 0.333274 6.28407ZM10.5357 19.4879V13.4166C10.5357 13.2982 10.4397 13.2023 10.3214 13.2023H6.67853C6.56019 13.2023 6.46425 13.2982 6.46425 13.4166V19.4879H10.5357Z" fill="#242730"/>
</svg>
