<svg width="14" height="22" viewBox="0 0 14 22" fill="none" xmlns="http://www.w3.org/2000/svg">
<path fill-rule="evenodd" clip-rule="evenodd" d="M10.621 1.66859L6.93142 1.08881C3.71084 0.582717 2.10055 0.329671 1.05027 1.22779C0 2.12591 0 3.75596 0 7.01607V10H5.91938L3.21913 6.62469L4.78087 5.37531L8.78087 10.3753L9.28062 11L8.78087 11.6247L4.78087 16.6247L3.21913 15.3753L5.91938 12H0V14.9831C0 18.2432 0 19.8733 1.05027 20.7714C2.10055 21.6695 3.71084 21.4165 6.93143 20.9104L10.621 20.3306C12.2337 20.0771 13.04 19.9504 13.52 19.3891C14 18.8279 14 18.0116 14 16.3791V5.6201C14 3.98758 14 3.17132 13.52 2.61003C13.04 2.04874 12.2337 1.92202 10.621 1.66859Z" fill="#959BA5"/>
</svg>
